<svg fill='#00a8e8' xmlns="http://www.w3.org/2000/svg" viewBox="0 0 1024 1024" role="img"><path d="M1024 64v896a64 64 0 01-64 64H64a64 64 0 01-64-64V64A64 64 0 0164 0h896a64 64 0 0164 64zM568.67 761.224V456.23h-89.356v303.72c0 44.784-18.677 56.245-47.967 56.245-30.776 0-43.51-21.012-57.518-45.845l-72.8 43.935C322.253 859.069 363.64 896 435.167 896c79.168 0 133.502-42.237 133.502-134.776zM780.064 896C864.751 896 928 851.853 928 771.624c0-74.71-42.661-108.032-118.645-140.506l-22.286-9.55c-38.416-16.768-54.971-27.592-54.971-54.335 0-21.65 16.555-38.204 42.661-38.204 25.682 0 42.237 10.824 57.519 38.204l69.616-44.572c-29.29-51.788-70.04-71.526-126.922-71.526-79.592 0-130.743 50.938-130.743 118.008 0 72.8 42.66 107.396 107.183 134.775l22.286 9.551c40.963 18.041 65.16 28.866 65.16 59.429 0 25.682-23.772 44.147-60.703 44.147-43.935 0-68.98-23.135-88.081-54.335l-72.8 42.025C643.38 856.522 697.078 896 780.065 896z"/></svg>